HIERARCHY
ROOT joint_0
{
	OFFSET 0.000000 0.000000 0.000000
	CHANNELS 6 Xposition Yposition Zposition Zrotation Yrotation Xrotation 
	JOINT joint_1
	{
		OFFSET 11.612000 -0.419000 106.198000
		CHANNELS 3 Zrotation Yrotation Xrotation
		JOINT joint_2
		{
			OFFSET -1.708000 -1.022000 97.564090
			CHANNELS 3 Zrotation Yrotation Xrotation
			JOINT joint_3
			{
				OFFSET -4.121000 -1.538000 97.375000
				CHANNELS 3 Zrotation Yrotation Xrotation
				JOINT joint_4
				{
					OFFSET 5.442000 -2.123000 132.795900
					CHANNELS 3 Zrotation Yrotation Xrotation
					JOINT joint_5
					{
						OFFSET 21.935000 0.195000 82.975100
						CHANNELS 3 Zrotation Yrotation Xrotation
						End Site
						{
							OFFSET 0.000000 0.000000 0.000000
						}
					}
				}
				JOINT joint_6
				{
					OFFSET 4.262000 -30.048000 73.899900
					CHANNELS 3 Zrotation Yrotation Xrotation
					JOINT joint_7
					{
						OFFSET 9.731000 -136.810010 -21.963010
						CHANNELS 3 Zrotation Yrotation Xrotation
						JOINT joint_8
						{
							OFFSET 33.360000 -35.709000 -267.597900
							CHANNELS 3 Zrotation Yrotation Xrotation
							JOINT joint_9
							{
								OFFSET 36.156000 -29.759000 -240.558040
								CHANNELS 3 Zrotation Yrotation Xrotation
								End Site
								{
									OFFSET 0.000000 0.000000 0.000000
								}
							}
						}
					}
				}
				JOINT joint_10
				{
					OFFSET 2.027000 27.734000 74.914920
					CHANNELS 3 Zrotation Yrotation Xrotation
					JOINT joint_11
					{
						OFFSET -5.183000 136.784000 -23.604980
						CHANNELS 3 Zrotation Yrotation Xrotation
						JOINT joint_12
						{
							OFFSET 29.806000 37.229000 -267.809940
							CHANNELS 3 Zrotation Yrotation Xrotation
							JOINT joint_13
							{
								OFFSET 36.890000 46.524990 -237.772030
								CHANNELS 3 Zrotation Yrotation Xrotation
								End Site
								{
									OFFSET 0.000000 0.000000 0.000000
								}
							}
						}
					}
				}
			}
		}
	}
	JOINT joint_14
	{
		OFFSET -7.290000 -102.873990 -124.314940
		CHANNELS 3 Zrotation Yrotation Xrotation
		JOINT joint_15
		{
			OFFSET -15.466000 -19.909010 -438.533020
			CHANNELS 3 Zrotation Yrotation Xrotation
			JOINT joint_16
			{
				OFFSET -26.899000 -18.922000 -464.797000
				CHANNELS 3 Zrotation Yrotation Xrotation
				JOINT joint_17
				{
					OFFSET 179.329000 -12.011000 -84.174000
					CHANNELS 3 Zrotation Yrotation Xrotation
					End Site
					{
						OFFSET 0.000000 0.000000 0.000000
					}
				}
			}
		}
	}
	JOINT joint_18
	{
		OFFSET -6.225000 101.546000 -125.479980
		CHANNELS 3 Zrotation Yrotation Xrotation
		JOINT joint_19
		{
			OFFSET -13.973000 7.996000 -438.963010
			CHANNELS 3 Zrotation Yrotation Xrotation
			JOINT joint_20
			{
				OFFSET -44.294000 5.716000 -463.813970
				CHANNELS 3 Zrotation Yrotation Xrotation
				JOINT joint_21
				{
					OFFSET 178.505000 -4.689000 -85.139000
					CHANNELS 3 Zrotation Yrotation Xrotation
					End Site
					{
						OFFSET 0.000000 0.000000 0.000000
					}
				}
			}
		}
	}
}
MOTION
Frames: 14
Frame Time: 0.016667
-2950.129639 782.888672 1120.619995 2.924474 4.251476 2.663699 -3.003437 9.304985 -0.887655 -1.585792 -1.871310 0.336822 -1.135715 1.718058 -0.003995 -1.769903 0.535810 6.338258 0.000000 0.000000 0.000000 -6.938872 -34.315337 -1.692620 -29.601442 -7.120294 5.449758 170.945623 -68.902954 -104.540788 0.000000 0.000000 0.000000 5.062580 -14.103301 8.130443 2.767700 -7.437369 5.231392 169.347707 -64.969925 167.325204 0.000000 0.000000 0.000000 -3.902114 -8.141525 -0.171183 -5.742662 18.520275 -1.771896 -5.483052 -12.389383 -3.251466 0.000000 0.000000 0.000000 2.878235 9.609478 3.862901 3.725580 9.783504 2.842542 4.409173 12.374794 2.061601 0.000000 0.000000 0.000000 
-2945.392822 775.750427 1118.621948 3.911656 3.484742 2.668898 -3.044258 9.824822 -0.283796 -1.556768 -1.934421 0.256717 -1.087837 1.787382 -0.006194 -1.668352 0.818955 5.929491 0.000000 0.000000 0.000000 -6.753097 -34.302870 -1.320952 -26.096619 -7.867773 5.721747 173.422754 -75.566300 -109.542041 0.000000 0.000000 0.000000 5.149481 -15.048295 7.803050 1.905562 -7.915233 4.975460 169.150688 -67.366317 169.008041 0.000000 0.000000 0.000000 -4.259797 -7.102858 0.255259 -5.968220 19.039419 -1.815681 -5.639053 -13.159018 -3.365196 0.000000 0.000000 0.000000 2.653719 8.800259 4.551917 3.529682 12.939918 2.889266 4.410655 11.373696 2.010576 0.000000 0.000000 0.000000 
-2941.141846 768.626404 1117.182007 4.905031 2.757687 2.613084 -3.109068 10.331256 0.391599 -1.532201 -1.992146 0.145647 -1.039424 1.849278 0.027630 -1.586306 1.124667 5.591589 0.000000 0.000000 0.000000 -6.528896 -34.279603 -0.971498 -22.908108 -8.657303 5.932981 176.387080 -80.280602 -115.243357 0.000000 0.000000 0.000000 5.198665 -16.009032 7.520936 0.993042 -8.281930 4.657334 168.889801 -69.930974 170.829814 0.000000 0.000000 0.000000 -4.555165 -5.927804 0.703708 -6.112423 19.217984 -1.742068 -5.679610 -13.772504 -3.419293 0.000000 0.000000 0.000000 2.461122 7.550891 5.341042 3.343542 16.628927 2.851478 4.575369 10.534787 2.023059 0.000000 0.000000 0.000000 
-2937.341309 761.648132 1116.156982 5.826322 2.126102 2.574794 -3.196062 10.758526 1.004575 -1.495420 -2.037079 -0.006962 -0.964461 1.893790 0.136356 -1.558777 1.458184 5.449594 0.000000 0.000000 0.000000 -6.237013 -34.514505 -0.706250 -21.206390 -9.346991 6.224663 178.296352 -83.647420 -118.621755 0.000000 0.000000 0.000000 5.146330 -16.890407 7.375132 0.198460 -8.573134 4.284317 168.657629 -72.666446 172.610489 0.000000 0.000000 0.000000 -4.949290 -4.810260 1.148778 -6.362287 19.063042 -1.677842 -5.862035 -14.166051 -3.522797 0.000000 0.000000 0.000000 2.381444 5.826633 6.191058 3.247225 20.777452 2.680685 5.071575 10.151626 2.165919 0.000000 0.000000 0.000000 
-2934.008789 754.659241 1115.614990 6.783615 1.570264 2.445275 -3.345666 11.114706 1.782797 -1.467220 -2.061290 -0.278756 -0.874172 1.923900 0.300471 -1.571357 1.812557 5.446620 0.000000 0.000000 0.000000 -5.872290 -34.782252 -0.530781 -20.029282 -10.011262 6.555648 179.819568 -86.675633 -121.165966 0.000000 0.000000 0.000000 5.011435 -17.705629 7.339120 -0.535235 -8.805832 3.837909 168.426764 -75.587253 174.428231 0.000000 0.000000 0.000000 -5.375995 -3.614257 1.699665 -6.622483 18.517540 -1.566067 -6.064983 -14.364547 -3.623010 0.000000 0.000000 0.000000 2.300037 3.577595 7.216323 3.124948 25.460302 2.398630 5.930967 10.339819 2.441449 0.000000 0.000000 0.000000 
-2931.160400 748.269836 1115.667969 7.570044 1.098156 2.280759 -3.476999 11.483187 2.601490 -1.394500 -2.084923 -0.568684 -0.736844 1.946209 0.452501 -1.593284 2.124385 5.472713 0.000000 0.000000 0.000000 -5.482252 -34.917400 -0.396970 -18.527914 -10.745480 6.761296 -178.455855 -89.453514 -124.480191 0.000000 0.000000 0.000000 4.910004 -18.623846 7.303883 -1.142498 -9.075489 3.363446 168.221831 -78.681803 175.983860 0.000000 0.000000 0.000000 -5.738962 -2.499633 2.261422 -6.811752 17.827608 -1.475821 -6.223620 -14.298041 -3.685655 0.000000 0.000000 0.000000 2.141588 1.267974 7.989519 2.881922 29.886389 2.191604 6.916822 10.454731 2.752662 0.000000 0.000000 0.000000 
-2928.912842 742.917480 1116.405029 8.033258 0.718761 2.167937 -3.526851 11.923759 3.287680 -1.233481 -2.120130 -0.763916 -0.527433 1.970692 0.548820 -1.604909 2.347785 5.466813 0.000000 0.000000 0.000000 -5.110766 -34.887352 -0.280598 -16.165636 -11.547948 6.711624 3.752684 -88.139589 50.480453 0.000000 0.000000 0.000000 4.943421 -19.751666 7.169432 -1.557192 -9.483519 2.890798 168.040018 -82.027497 177.041788 0.000000 0.000000 0.000000 -5.969330 -1.600798 2.709681 -6.886266 17.182039 -1.450223 -6.300571 -13.949819 -3.693227 0.000000 0.000000 0.000000 1.981907 -0.851655 8.210720 2.591515 33.733534 2.194341 7.835584 9.701366 3.033179 0.000000 0.000000 0.000000 
-2927.263184 738.366821 1117.785034 8.254582 0.428443 2.086303 -3.530757 12.409404 3.900860 -1.001103 -2.158727 -0.914833 -0.250444 1.995117 0.616985 -1.616264 2.505921 5.471532 0.000000 0.000000 0.000000 -4.759965 -34.838537 -0.208138 -13.260231 -12.292332 6.467901 6.148184 -86.053519 44.420133 0.000000 0.000000 0.000000 5.065965 -20.982411 6.964853 -1.788174 -10.036938 2.400812 167.869478 -85.638428 177.691642 0.000000 0.000000 0.000000 -6.103261 -0.850768 3.081992 -6.873984 16.488112 -1.465487 -6.316997 -13.356057 -3.658106 0.000000 0.000000 0.000000 1.881236 -2.967448 8.068352 2.322729 37.328697 2.305062 8.742236 8.303578 3.315809 0.000000 0.000000 0.000000 
-2925.720703 734.494812 1119.727051 8.254410 0.219664 2.042703 -3.487188 12.894214 4.433655 -0.752956 -2.197005 -1.038037 0.030272 2.019203 0.666795 -1.620733 2.629959 5.460346 0.000000 0.000000 0.000000 -4.434593 -34.869995 -0.140744 -10.362385 -12.911074 6.119433 8.410429 -84.350087 38.293616 0.000000 0.000000 0.000000 5.202669 -22.175425 6.735945 -1.912348 -10.639219 1.934758 167.741841 -89.069355 178.098156 0.000000 0.000000 0.000000 -6.153170 -0.199275 3.362282 -6.781724 15.738074 -1.490161 -6.263940 -12.568076 -3.580815 0.000000 0.000000 0.000000 1.713418 -4.987811 7.681240 1.986813 40.369951 2.203073 9.143898 6.894989 3.437830 0.000000 0.000000 0.000000 
-2924.013184 731.287476 1122.269043 8.024384 0.078553 2.056276 -3.386519 13.366551 4.856139 -0.523529 -2.235180 -1.136584 0.271897 2.046601 0.704833 -1.612949 2.741116 5.409359 0.000000 0.000000 0.000000 -4.141000 -35.013517 -0.055135 -7.570976 -13.389316 5.714142 10.506071 -82.982117 32.270324 0.000000 0.000000 0.000000 5.304508 -23.280012 6.521436 -1.942775 -11.241286 1.519485 -12.304822 -87.922524 -1.702464 0.000000 0.000000 0.000000 -6.117595 0.401764 3.515221 -6.605142 14.904364 -1.501526 -6.127511 -11.592752 -3.456684 0.000000 0.000000 0.000000 1.368719 -6.855227 7.108487 1.513615 42.647327 1.650398 8.577734 5.923297 3.227546 0.000000 0.000000 0.000000 
-2922.329346 728.785156 1125.442017 7.567886 0.013664 2.125431 -3.231609 13.834813 5.172375 -0.297336 -2.266971 -1.209927 0.494622 2.076204 0.730097 -1.595571 2.826217 5.329341 0.000000 0.000000 0.000000 -3.892009 -35.273349 0.029014 -4.719071 -13.708488 5.282452 12.486946 -81.785132 26.143854 0.000000 0.000000 0.000000 5.398629 -24.330686 6.307976 -1.838339 -11.890552 1.140671 -12.285296 -85.183430 -1.772141 0.000000 0.000000 0.000000 -5.992606 0.931571 3.543725 -6.348702 13.984848 -1.504840 -5.916772 -10.409510 -3.288013 0.000000 0.000000 0.000000 0.918632 -8.647859 6.352741 0.971433 44.269972 0.774336 7.196176 5.166601 2.726165 0.000000 0.000000 0.000000 
-2920.423096 726.743835 1128.843018 6.966475 0.073706 2.221605 -3.022476 14.213841 5.422056 -0.101174 -2.291119 -1.271195 0.675289 2.100329 0.748129 -1.575531 2.882779 5.241961 0.000000 0.000000 0.000000 -3.677424 -35.566993 0.073769 -2.310242 -13.862980 4.910199 14.059509 -80.937629 20.987819 0.000000 0.000000 0.000000 5.488187 -25.184423 6.102393 -1.709217 -12.472372 0.821992 -12.249970 -83.058583 -1.804615 0.000000 0.000000 0.000000 -5.793628 1.293059 3.499175 -6.055083 13.111363 -1.489829 -5.668537 -9.143014 -3.098178 0.000000 0.000000 0.000000 0.528326 -10.396631 5.530774 0.518849 45.192985 -0.188402 5.558639 4.328684 2.129250 0.000000 0.000000 0.000000 
-2918.148926 725.031433 1132.297974 6.255837 0.318415 2.330790 -2.743968 14.430091 5.628618 0.048033 -2.311485 -1.329133 0.795809 2.117211 0.762797 -1.559528 2.903170 5.164463 0.000000 0.000000 0.000000 -3.481808 -35.774793 0.028883 -0.548817 -13.883892 4.605486 15.151735 -80.675998 17.258207 0.000000 0.000000 0.000000 5.571253 -25.760383 5.928320 -1.663898 -12.886786 0.568614 -12.231305 -81.867692 -1.516743 0.000000 0.000000 0.000000 -5.515941 1.384995 3.402475 -5.743354 12.373819 -1.440734 -5.397790 -7.853522 -2.897255 0.000000 0.000000 0.000000 0.265528 -12.133237 4.700447 0.219516 45.368406 -1.120591 3.994472 3.250686 1.549804 0.000000 0.000000 0.000000 
-2915.606445 723.745911 1135.963989 5.403612 0.731614 2.453948 -2.391377 14.516521 5.782621 0.158311 -2.325403 -1.382022 0.862093 2.125923 0.775255 -1.544500 2.888056 5.083780 0.000000 0.000000 0.000000 -3.302972 -35.885856 -0.107223 0.840844 -13.805900 4.341282 15.945949 -80.925600 14.404836 0.000000 0.000000 0.000000 5.653498 -26.124182 5.800299 -1.667068 -13.167460 0.360057 -12.210333 -81.490938 -1.017139 0.000000 0.000000 0.000000 -5.153952 1.241713 3.238543 -5.396176 11.720122 -1.359009 -5.089911 -6.485498 -2.675334 0.000000 0.000000 0.000000 0.029005 -13.835213 3.843607 -0.026074 44.734285 -2.103794 2.353762 2.156102 0.925054 0.000000 0.000000 0.000000 
